<svg xmlns="http://www.w3.org/2000/svg" viewBox="0 0 512 512" width="512" height="512">
  <defs>
    <linearGradient id="bgGrad" x1="0%" y1="0%" x2="100%" y2="100%">
      <stop offset="0%" stop-color="#3b82f6" />
      <stop offset="100%" stop-color="#1d4ed8" />
    </linearGradient>
    <linearGradient id="cardGrad" x1="0%" y1="0%" x2="0%" y2="100%">
      <stop offset="0%" stop-color="#ffffff" />
      <stop offset="100%" stop-color="#f1f5f9" />
    </linearGradient>
  </defs>
  <!-- Background with rounded corners -->
  <rect width="512" height="512" rx="110" fill="url(#bgGrad)" />
  <!-- Calendar Base -->
  <rect x="96" y="116" width="320" height="290" rx="36" fill="url(#cardGrad)" />
  <!-- Calendar Header -->
  <path d="M96 152 C96 132 112 116 132 116 L380 116 C400 116 416 132 416 152 L416 186 L96 186 Z" fill="#ef4444" />
  <!-- Binder Rings -->
  <rect x="160" y="86" width="28" height="56" rx="14" fill="#64748b" />
  <rect x="324" y="86" width="28" height="56" rx="14" fill="#64748b" />
  <!-- Clock / Schedule Badge -->
  <circle cx="340" cy="330" r="66" fill="#10b981" stroke="#ffffff" stroke-width="8" />
  <path d="M340 300 L340 330 L362 344" stroke="#ffffff" stroke-width="6" stroke-linecap="round" />
  <!-- Text / Grid Lines -->
  <rect x="136" y="226" width="130" height="20" rx="10" fill="#cbd5e1" />
  <rect x="136" y="266" width="100" height="16" rx="8" fill="#e2e8f0" />
  <rect x="136" y="296" width="80" height="16" rx="8" fill="#e2e8f0" />
</svg>
